<mxfile host="Electron" agent="Mozilla/5.0 (Windows NT 10.0; Win64; x64) AppleWebKit/537.36 (KHTML, like Gecko) draw.io/25.0.1 Chrome/128.0.6613.186 Electron/32.2.6 Safari/537.36" version="25.0.1">
  <diagram name="Side-1" id="NHAgeWhEGQmmEM6n7HXk">
    <mxGraphModel dx="500" dy="296" grid="1" gridSize="10" guides="1" tooltips="1" connect="1" arrows="1" fold="1" page="1" pageScale="1" pageWidth="3300" pageHeight="4681" math="1" shadow="0">
      <root>
        <mxCell id="0" />
        <mxCell id="1" parent="0" />
        <mxCell id="SFgKOH9r3m3D4WPlFbOF-20" value="\(C0_1\)" style="rounded=0;whiteSpace=wrap;html=1;fillColor=#dae8fc;strokeColor=#6c8ebf;" vertex="1" parent="1">
          <mxGeometry x="268" y="112" width="40" height="20" as="geometry" />
        </mxCell>
        <mxCell id="SFgKOH9r3m3D4WPlFbOF-21" value="\(C1_1\)" style="rounded=0;whiteSpace=wrap;html=1;fillColor=#d5e8d4;strokeColor=#82b366;" vertex="1" parent="1">
          <mxGeometry x="308" y="112" width="40" height="20" as="geometry" />
        </mxCell>
        <mxCell id="SFgKOH9r3m3D4WPlFbOF-22" value="..." style="rounded=0;whiteSpace=wrap;html=1;fillColor=#ffe6cc;strokeColor=#d79b00;" vertex="1" parent="1">
          <mxGeometry x="348" y="112" width="20" height="20" as="geometry" />
        </mxCell>
        <mxCell id="SFgKOH9r3m3D4WPlFbOF-23" value="\(CM_1\)" style="rounded=0;whiteSpace=wrap;html=1;fillColor=#fff2cc;strokeColor=#d6b656;" vertex="1" parent="1">
          <mxGeometry x="368" y="112" width="40" height="20" as="geometry" />
        </mxCell>
        <mxCell id="SFgKOH9r3m3D4WPlFbOF-8" value="HTTP" style="rounded=0;orthogonalLoop=1;jettySize=auto;html=1;exitX=1;exitY=0.5;exitDx=0;exitDy=0;entryX=0;entryY=0.5;entryDx=0;entryDy=0;startArrow=classic;startFill=1;" edge="1" parent="1" source="SFgKOH9r3m3D4WPlFbOF-2" target="SFgKOH9r3m3D4WPlFbOF-4">
          <mxGeometry relative="1" as="geometry" />
        </mxCell>
        <mxCell id="SFgKOH9r3m3D4WPlFbOF-9" value="HTTP" style="rounded=0;orthogonalLoop=1;jettySize=auto;html=1;exitX=1;exitY=0.5;exitDx=0;exitDy=0;startArrow=classic;startFill=1;" edge="1" parent="1" source="SFgKOH9r3m3D4WPlFbOF-2" target="SFgKOH9r3m3D4WPlFbOF-5">
          <mxGeometry relative="1" as="geometry" />
        </mxCell>
        <mxCell id="SFgKOH9r3m3D4WPlFbOF-10" value="HTTP" style="rounded=0;orthogonalLoop=1;jettySize=auto;html=1;exitX=1;exitY=0.5;exitDx=0;exitDy=0;entryX=0;entryY=0.5;entryDx=0;entryDy=0;startArrow=classic;startFill=1;" edge="1" parent="1" source="SFgKOH9r3m3D4WPlFbOF-2" target="SFgKOH9r3m3D4WPlFbOF-6">
          <mxGeometry relative="1" as="geometry" />
        </mxCell>
        <mxCell id="SFgKOH9r3m3D4WPlFbOF-2" value="lead_node" style="rounded=1;whiteSpace=wrap;html=1;align=center;verticalAlign=middle;" vertex="1" parent="1">
          <mxGeometry x="350" y="250" width="120" height="60" as="geometry" />
        </mxCell>
        <mxCell id="SFgKOH9r3m3D4WPlFbOF-11" value="HTTP" style="edgeStyle=orthogonalEdgeStyle;rounded=0;orthogonalLoop=1;jettySize=auto;html=1;exitX=0.5;exitY=0.5;exitDx=0;exitDy=0;exitPerimeter=0;entryX=0;entryY=0.5;entryDx=0;entryDy=0;startArrow=classic;startFill=1;" edge="1" parent="1" source="SFgKOH9r3m3D4WPlFbOF-3" target="SFgKOH9r3m3D4WPlFbOF-2">
          <mxGeometry relative="1" as="geometry" />
        </mxCell>
        <mxCell id="SFgKOH9r3m3D4WPlFbOF-3" value="User" style="shape=umlActor;verticalLabelPosition=bottom;verticalAlign=top;html=1;outlineConnect=0;" vertex="1" parent="1">
          <mxGeometry x="170" y="250" width="30" height="60" as="geometry" />
        </mxCell>
        <mxCell id="SFgKOH9r3m3D4WPlFbOF-4" value="storage_node_1" style="rounded=1;whiteSpace=wrap;html=1;" vertex="1" parent="1">
          <mxGeometry x="690" y="160" width="120" height="60" as="geometry" />
        </mxCell>
        <mxCell id="SFgKOH9r3m3D4WPlFbOF-7" style="edgeStyle=orthogonalEdgeStyle;rounded=0;orthogonalLoop=1;jettySize=auto;html=1;exitX=0.5;exitY=1;exitDx=0;exitDy=0;entryX=0.5;entryY=0;entryDx=0;entryDy=0;dashed=1;dashPattern=1 4;strokeWidth=5;endArrow=none;endFill=0;targetPerimeterSpacing=12;sourcePerimeterSpacing=6;endSize=1;curved=0;" edge="1" parent="1" source="SFgKOH9r3m3D4WPlFbOF-5" target="SFgKOH9r3m3D4WPlFbOF-6">
          <mxGeometry relative="1" as="geometry" />
        </mxCell>
        <mxCell id="SFgKOH9r3m3D4WPlFbOF-5" value="storage_node_2" style="rounded=1;whiteSpace=wrap;html=1;" vertex="1" parent="1">
          <mxGeometry x="690" y="230" width="120" height="60" as="geometry" />
        </mxCell>
        <mxCell id="SFgKOH9r3m3D4WPlFbOF-6" value="storage_node_N" style="rounded=1;whiteSpace=wrap;html=1;" vertex="1" parent="1">
          <mxGeometry x="690" y="370" width="120" height="60" as="geometry" />
        </mxCell>
        <mxCell id="SFgKOH9r3m3D4WPlFbOF-12" value="" style="image;sketch=0;aspect=fixed;html=1;points=[];align=center;fontSize=12;image=img/lib/mscae/Docker.svg;" vertex="1" parent="1">
          <mxGeometry x="442.39" y="252" width="25.61" height="21" as="geometry" />
        </mxCell>
        <mxCell id="SFgKOH9r3m3D4WPlFbOF-13" value="" style="image;sketch=0;aspect=fixed;html=1;points=[];align=center;fontSize=12;image=img/lib/mscae/Docker.svg;" vertex="1" parent="1">
          <mxGeometry x="782.39" y="162" width="25.61" height="21" as="geometry" />
        </mxCell>
        <mxCell id="SFgKOH9r3m3D4WPlFbOF-14" value="" style="image;sketch=0;aspect=fixed;html=1;points=[];align=center;fontSize=12;image=img/lib/mscae/Docker.svg;" vertex="1" parent="1">
          <mxGeometry x="782.39" y="231" width="25.61" height="21" as="geometry" />
        </mxCell>
        <mxCell id="SFgKOH9r3m3D4WPlFbOF-15" value="" style="image;sketch=0;aspect=fixed;html=1;points=[];align=center;fontSize=12;image=img/lib/mscae/Docker.svg;" vertex="1" parent="1">
          <mxGeometry x="782.39" y="372" width="25.61" height="21" as="geometry" />
        </mxCell>
        <mxCell id="SFgKOH9r3m3D4WPlFbOF-16" value="\(C0_0\)" style="rounded=0;whiteSpace=wrap;html=1;fillColor=#dae8fc;strokeColor=#6c8ebf;" vertex="1" parent="1">
          <mxGeometry x="260" y="130" width="40" height="20" as="geometry" />
        </mxCell>
        <mxCell id="SFgKOH9r3m3D4WPlFbOF-17" value="\(C1_0\)" style="rounded=0;whiteSpace=wrap;html=1;fillColor=#d5e8d4;strokeColor=#82b366;" vertex="1" parent="1">
          <mxGeometry x="300" y="130" width="40" height="20" as="geometry" />
        </mxCell>
        <mxCell id="SFgKOH9r3m3D4WPlFbOF-18" value="..." style="rounded=0;whiteSpace=wrap;html=1;fillColor=#ffe6cc;strokeColor=#d79b00;" vertex="1" parent="1">
          <mxGeometry x="340" y="130" width="20" height="20" as="geometry" />
        </mxCell>
        <mxCell id="SFgKOH9r3m3D4WPlFbOF-19" value="\(CM_0\)" style="rounded=0;whiteSpace=wrap;html=1;fillColor=#fff2cc;strokeColor=#d6b656;" vertex="1" parent="1">
          <mxGeometry x="360" y="130" width="40" height="20" as="geometry" />
        </mxCell>
        <mxCell id="SFgKOH9r3m3D4WPlFbOF-24" value="\(C0_k\)" style="rounded=0;whiteSpace=wrap;html=1;fillColor=#dae8fc;strokeColor=#6c8ebf;" vertex="1" parent="1">
          <mxGeometry x="288" y="80" width="40" height="20" as="geometry" />
        </mxCell>
        <mxCell id="SFgKOH9r3m3D4WPlFbOF-25" value="\(C1_k\)" style="rounded=0;whiteSpace=wrap;html=1;fillColor=#d5e8d4;strokeColor=#82b366;" vertex="1" parent="1">
          <mxGeometry x="328" y="80" width="40" height="20" as="geometry" />
        </mxCell>
        <mxCell id="SFgKOH9r3m3D4WPlFbOF-26" value="..." style="rounded=0;whiteSpace=wrap;html=1;fillColor=#ffe6cc;strokeColor=#d79b00;" vertex="1" parent="1">
          <mxGeometry x="368" y="80" width="20" height="20" as="geometry" />
        </mxCell>
        <mxCell id="SFgKOH9r3m3D4WPlFbOF-27" value="\(CM_k\)" style="rounded=0;whiteSpace=wrap;html=1;fillColor=#fff2cc;strokeColor=#d6b656;" vertex="1" parent="1">
          <mxGeometry x="388" y="80" width="40" height="20" as="geometry" />
        </mxCell>
        <mxCell id="SFgKOH9r3m3D4WPlFbOF-28" value="..." style="rounded=0;whiteSpace=wrap;html=1;fillColor=none;strokeColor=none;" vertex="1" parent="1">
          <mxGeometry x="298" y="92" width="20" height="20" as="geometry" />
        </mxCell>
        <mxCell id="SFgKOH9r3m3D4WPlFbOF-29" value="..." style="rounded=0;whiteSpace=wrap;html=1;fillColor=none;strokeColor=none;" vertex="1" parent="1">
          <mxGeometry x="338" y="92" width="20" height="20" as="geometry" />
        </mxCell>
        <mxCell id="SFgKOH9r3m3D4WPlFbOF-30" value="..." style="rounded=0;whiteSpace=wrap;html=1;fillColor=none;strokeColor=none;" vertex="1" parent="1">
          <mxGeometry x="398" y="92" width="20" height="20" as="geometry" />
        </mxCell>
        <mxCell id="SFgKOH9r3m3D4WPlFbOF-31" value="..." style="rounded=0;whiteSpace=wrap;html=1;fillColor=none;strokeColor=none;" vertex="1" parent="1">
          <mxGeometry x="368" y="92" width="20" height="20" as="geometry" />
        </mxCell>
      </root>
    </mxGraphModel>
  </diagram>
</mxfile>
